<mxfile host="app.diagrams.net" modified="2023-07-19T18:18:18.723Z" agent="Mozilla/5.0 (Windows NT 10.0; Win64; x64) AppleWebKit/537.36 (KHTML, like Gecko) Chrome/114.0.0.0 Safari/537.36" etag="qXE-_7hgf1VXNuXjR1LB" version="21.6.1" type="github">
  <diagram name="Page-1" id="aaaa8250-4180-3840-79b5-4cada1eebb92">
    <mxGraphModel dx="1434" dy="739" grid="1" gridSize="10" guides="1" tooltips="1" connect="1" arrows="1" fold="1" page="1" pageScale="1" pageWidth="850" pageHeight="1100" background="none" math="0" shadow="0">
      <root>
        <mxCell id="0" />
        <mxCell id="1" parent="0" />
        <mxCell id="B0Iy1V9mp7dcR3nQXcta-11" value="" style="swimlane;startSize=0;labelBackgroundColor=#706666;fillColor=#f5f5f5;strokeColor=#666666;fontColor=#333333;gradientColor=none;swimlaneFillColor=#7372df;" vertex="1" parent="1">
          <mxGeometry x="16" y="23" width="1200" height="630" as="geometry">
            <mxRectangle x="-190" y="150" width="50" height="40" as="alternateBounds" />
          </mxGeometry>
        </mxCell>
        <mxCell id="B0Iy1V9mp7dcR3nQXcta-17" value="Slave 3" style="image;aspect=fixed;html=1;points=[];align=center;fontSize=12;image=img/lib/mscae/Cache_Redis_Product.svg;labelBackgroundColor=none;fontColor=#ffffff;" vertex="1" parent="B0Iy1V9mp7dcR3nQXcta-11">
          <mxGeometry x="864" y="366.44" width="250" height="210" as="geometry" />
        </mxCell>
        <mxCell id="B0Iy1V9mp7dcR3nQXcta-14" value="Master 3" style="image;sketch=0;aspect=fixed;html=1;points=[];align=center;fontSize=12;image=img/lib/mscae/Cache_Redis_Product.svg;labelPosition=center;verticalLabelPosition=top;verticalAlign=bottom;labelBackgroundColor=none;fontColor=#ffffff;" vertex="1" parent="B0Iy1V9mp7dcR3nQXcta-11">
          <mxGeometry x="864" y="37" width="250" height="210" as="geometry" />
        </mxCell>
        <mxCell id="B0Iy1V9mp7dcR3nQXcta-16" value="Slave 2" style="image;sketch=0;aspect=fixed;html=1;points=[];align=center;fontSize=12;image=img/lib/mscae/Cache_Redis_Product.svg;labelBackgroundColor=none;fontColor=#ffffff;" vertex="1" parent="B0Iy1V9mp7dcR3nQXcta-11">
          <mxGeometry x="454" y="377" width="250" height="210" as="geometry" />
        </mxCell>
        <mxCell id="B0Iy1V9mp7dcR3nQXcta-15" value="Slave 1" style="image;sketch=0;aspect=fixed;html=1;points=[];align=center;fontSize=12;image=img/lib/mscae/Cache_Redis_Product.svg;labelBackgroundColor=none;fontColor=#ffffff;" vertex="1" parent="B0Iy1V9mp7dcR3nQXcta-11">
          <mxGeometry x="74" y="366.44" width="250" height="210" as="geometry" />
        </mxCell>
        <mxCell id="B0Iy1V9mp7dcR3nQXcta-13" value="Master 2" style="image;sketch=0;aspect=fixed;html=1;points=[];align=center;fontSize=12;image=img/lib/mscae/Cache_Redis_Product.svg;labelPosition=center;verticalLabelPosition=top;verticalAlign=bottom;labelBackgroundColor=none;fontColor=#ffffff;" vertex="1" parent="B0Iy1V9mp7dcR3nQXcta-11">
          <mxGeometry x="464" y="37" width="250" height="210" as="geometry" />
        </mxCell>
        <mxCell id="B0Iy1V9mp7dcR3nQXcta-12" value="Master 1" style="image;sketch=0;aspect=fixed;html=1;points=[];align=center;fontSize=12;image=img/lib/mscae/Cache_Redis_Product.svg;labelPosition=center;verticalLabelPosition=top;verticalAlign=bottom;labelBackgroundColor=none;fontColor=#ffffff;" vertex="1" parent="B0Iy1V9mp7dcR3nQXcta-11">
          <mxGeometry x="74" y="37" width="250" height="210" as="geometry" />
        </mxCell>
        <mxCell id="B0Iy1V9mp7dcR3nQXcta-19" value="" style="endArrow=classic;startArrow=classic;html=1;rounded=0;exitX=0.498;exitY=-0.007;exitDx=0;exitDy=0;exitPerimeter=0;" edge="1" parent="B0Iy1V9mp7dcR3nQXcta-11" source="B0Iy1V9mp7dcR3nQXcta-15" target="B0Iy1V9mp7dcR3nQXcta-12">
          <mxGeometry width="50" height="50" relative="1" as="geometry">
            <mxPoint x="72.33999999999997" y="257" as="sourcePoint" />
            <mxPoint x="122.33999999999997" y="207" as="targetPoint" />
          </mxGeometry>
        </mxCell>
        <mxCell id="B0Iy1V9mp7dcR3nQXcta-20" value="" style="endArrow=classic;startArrow=classic;html=1;rounded=0;" edge="1" parent="B0Iy1V9mp7dcR3nQXcta-11" source="B0Iy1V9mp7dcR3nQXcta-16" target="B0Iy1V9mp7dcR3nQXcta-13">
          <mxGeometry width="50" height="50" relative="1" as="geometry">
            <mxPoint x="578.5" y="363.5" as="sourcePoint" />
            <mxPoint x="578.5" y="266.5" as="targetPoint" />
          </mxGeometry>
        </mxCell>
        <mxCell id="B0Iy1V9mp7dcR3nQXcta-21" value="" style="endArrow=classic;startArrow=classic;html=1;rounded=0;" edge="1" parent="B0Iy1V9mp7dcR3nQXcta-11" source="B0Iy1V9mp7dcR3nQXcta-17" target="B0Iy1V9mp7dcR3nQXcta-14">
          <mxGeometry width="50" height="50" relative="1" as="geometry">
            <mxPoint x="988.5" y="344" as="sourcePoint" />
            <mxPoint x="988.5" y="247" as="targetPoint" />
          </mxGeometry>
        </mxCell>
        <mxCell id="B0Iy1V9mp7dcR3nQXcta-18" value="" style="endArrow=none;html=1;rounded=0;" edge="1" parent="B0Iy1V9mp7dcR3nQXcta-11">
          <mxGeometry width="50" height="50" relative="1" as="geometry">
            <mxPoint x="198" y="307" as="sourcePoint" />
            <mxPoint x="988" y="307" as="targetPoint" />
          </mxGeometry>
        </mxCell>
      </root>
    </mxGraphModel>
  </diagram>
</mxfile>
